<?xml version="1.0" encoding="utf-8"?>
<!-- Generator: Adobe Illustrator 16.0.0, SVG Export Plug-In . SVG Version: 6.00 Build 0)  -->
<!DOCTYPE svg PUBLIC "-//W3C//DTD SVG 1.1//EN" "http://www.w3.org/Graphics/SVG/1.1/DTD/svg11.dtd">
<svg version="1.1" id="Layer_1" xmlns="http://www.w3.org/2000/svg" xmlns:xlink="http://www.w3.org/1999/xlink" x="0px" y="0px"
	 width="611.834px" height="706.506px" viewBox="0.083 42.123 611.834 706.506"
	 enable-background="new 0.083 42.123 611.834 706.506" xml:space="preserve">
<polygon id="fill" fill="#E1F0FB" points="611.917,572.024 306,748.629 0.083,572.021 0.083,218.728 306,42.123 611.917,218.728 "/>
<linearGradient id="gradient_1_" gradientUnits="userSpaceOnUse" x1="305.6709" y1="404.7256" x2="305.6709" y2="134.4175" gradientTransform="matrix(1 0 0 1 0 -80)">
	<stop  offset="0" style="stop-color:#FFFFFF;stop-opacity:0"/>
	<stop  offset="1" style="stop-color:#FFFFFF"/>
</linearGradient>
<path id="gradient" opacity="0.2" fill="url(#gradient_1_)" d="M305.591,54.417L59.22,197.048
	c36.979,74.535,133.292,127.677,246.28,127.677c113.336,0,209.895-53.47,246.621-128.366L305.591,54.417z"/>
<g id="img">
</g>
<path id="outline" fill="#EC6B00" d="M587.52,204.656L356.209,71.099L306,42.123l-50.209,28.976L24.48,204.656L0.083,218.728
	v353.293l24.396,14.071l234.142,135.225L306,748.629l47.378-27.312L587.52,586.095l24.397-14.07V218.728L587.52,204.656z
	 M587.52,558.783L306,721.317L24.48,558.783v-325.15L306,71.099l0,0l281.52,162.534V558.783z"/>
<path fill="#FDBF07" d="M489.667,311.753"/>
<g display="none">
	<path display="inline" fill="#1A237E" d="M119.517,483.303v20.482h16.787v17.249h-16.787v27.413c0,9.087,2.31,13.245,9.24,13.245
		c3.234,0,4.774-0.154,6.931-0.616l0.154,17.711c-2.926,1.078-8.625,2.002-15.093,2.002c-7.546,0-13.86-2.618-17.711-6.469
		c-4.312-4.466-6.468-11.704-6.468-22.331v-30.955H86.56v-17.249h10.01v-14.169L119.517,483.303z"/>
	<path display="inline" fill="#1A237E" d="M149.698,558.766c4.313,2.618,13.245,5.545,20.175,5.545c7.084,0,10.01-2.311,10.01-6.161
		c0-4.004-2.31-5.852-10.935-8.778c-15.708-5.082-21.715-13.706-21.561-22.484c0-14.169,12.013-24.796,30.647-24.796
		c8.778,0,16.479,2.156,21.099,4.467l-4.004,16.017c-3.388-1.694-10.01-4.158-16.325-4.158c-5.698,0-8.932,2.311-8.932,6.006
		c0,3.696,2.926,5.545,12.167,8.778c14.322,4.774,20.175,12.167,20.329,23.102c0,14.169-10.935,24.487-32.495,24.487
		c-9.856,0-18.635-2.311-24.333-5.391L149.698,558.766z"/>
	<path display="inline" fill="#1A237E" d="M225.003,490.849c-5.083,0-8.471-4.004-8.471-8.778s3.542-8.624,8.779-8.624
		c5.236,0,8.624,3.85,8.624,8.624s-3.388,8.778-8.778,8.778H225.003z M218.535,579.095v-74.539h13.552v74.539H218.535z"/>
	<path display="inline" fill="#1A237E" d="M254.57,469.75h13.552v46.664h0.308c4.774-8.316,13.399-13.553,25.411-13.553
		c18.482,0,31.417,15.4,31.417,37.886c0,26.797-16.941,40.042-33.573,40.042c-10.781,0-19.251-4.158-24.949-14.015h-0.308
		l-0.77,12.32h-11.705c0.462-5.082,0.616-12.629,0.616-19.251V469.75z M268.122,549.218c0,1.693,0.154,3.388,0.462,4.928
		c2.618,9.395,10.626,15.863,20.329,15.863c14.323,0,22.639-11.551,22.639-28.646c0-15.093-7.7-27.876-22.177-27.876
		c-9.24,0-17.865,6.469-20.483,16.633c-0.462,1.694-0.77,3.543-0.77,5.698V549.218z"/>
	<path display="inline" fill="#1A237E" d="M342.192,469.75h13.553v46.664h0.309c4.773-8.316,13.398-13.553,25.412-13.553
		c18.48,0,31.416,15.4,31.416,37.886c0,26.797-16.939,40.042-33.572,40.042c-10.781,0-19.252-4.158-24.949-14.015h-0.309
		l-0.77,12.32h-11.705c0.463-5.082,0.615-12.629,0.615-19.251V469.75z M355.745,549.218c0,1.693,0.154,3.388,0.463,4.928
		c2.617,9.395,10.627,15.863,20.328,15.863c14.324,0,22.639-11.551,22.639-28.646c0-15.093-7.699-27.876-22.176-27.876
		c-9.24,0-17.865,6.469-20.482,16.633c-0.463,1.694-0.771,3.543-0.771,5.698V549.218z"/>
	<path display="inline" fill="#1A237E" d="M429.817,469.75h13.553v109.345h-13.553V469.75z"/>
	<path display="inline" fill="#1A237E" d="M473.552,544.135c0.309,18.327,11.859,25.874,25.412,25.874
		c9.703,0,15.709-1.694,20.637-3.696l2.465,9.548c-4.775,2.156-13.092,4.774-24.949,4.774c-22.793,0-36.654-15.247-36.654-37.578
		c0-22.639,13.398-40.35,35.113-40.35c24.334,0,30.648,21.407,30.648,35.114c0,2.771-0.154,4.928-0.463,6.468L473.552,544.135z
		 M513.132,534.433c0.154-8.471-3.541-22.022-18.635-22.022c-13.859,0-19.713,12.628-20.791,22.022H513.132z"/>
</g>
<g>
	<path fill="#1A237E" d="M139.433,608.028v-61.714h-9.916v-9.915h9.916v-3.404c0-10.064,2.368-19.24,8.436-25.012
		c4.884-4.735,11.396-6.66,17.315-6.66c4.736,0,8.583,1.037,11.1,2.072l-1.628,10.064c-2.072-0.889-4.588-1.629-8.436-1.629
		c-10.952,0-13.912,9.768-13.912,20.72v3.849h17.315v9.915h-17.167v61.714H139.433z"/>
	<path fill="#1A237E" d="M187.089,574.434c0.296,17.611,11.396,24.863,24.419,24.863c9.324,0,15.096-1.628,19.832-3.552l2.368,9.176
		c-4.588,2.071-12.58,4.587-23.975,4.587c-21.903,0-35.223-14.651-35.223-36.11c0-21.756,12.875-38.774,33.743-38.774
		c23.383,0,29.451,20.571,29.451,33.743c0,2.664-0.148,4.735-0.444,6.215L187.089,574.434z M225.124,565.11
		c0.148-8.141-3.404-21.164-17.908-21.164c-13.319,0-18.943,12.136-19.979,21.164H225.124z"/>
	<path fill="#1A237E" d="M304.302,590.861c0,6.216,0.296,12.283,1.036,17.167h-11.691l-1.184-9.027h-0.444
		c-3.848,5.623-11.691,10.655-21.903,10.655c-14.503,0-21.903-10.212-21.903-20.571c0-17.315,15.392-26.787,43.067-26.639v-1.48
		c0-5.92-1.628-16.723-16.28-16.575c-6.808,0-13.763,1.924-18.795,5.327l-2.96-8.73c5.92-3.701,14.652-6.217,23.679-6.217
		c22.051,0,27.379,14.947,27.379,29.303V590.861z M291.574,571.474c-14.208-0.296-30.339,2.22-30.339,16.132
		c0,8.583,5.624,12.431,12.135,12.431c9.472,0,15.54-5.919,17.611-11.987c0.444-1.332,0.592-2.812,0.592-4.144V571.474z"/>
	<path fill="#1A237E" d="M323.396,594.856c3.995,2.368,10.803,5.032,17.314,5.032c9.324,0,13.764-4.588,13.764-10.655
		c0-6.216-3.699-9.62-13.172-13.172c-13.023-4.736-19.091-11.691-19.091-20.275c0-11.543,9.472-21.016,24.716-21.016
		c7.251,0,13.615,1.924,17.463,4.439l-3.108,9.324c-2.812-1.628-7.991-4.144-14.651-4.144c-7.695,0-11.84,4.439-11.84,9.768
		c0,6.067,4.145,8.731,13.468,12.284c12.284,4.588,18.796,10.803,18.796,21.606c0,12.728-9.916,21.607-26.64,21.607
		c-7.843,0-15.095-2.072-20.127-5.032L323.396,594.856z"/>
	<path fill="#1A237E" d="M407.161,515.976v19.684h16.132v16.575h-16.132v26.343c0,8.731,2.221,12.728,8.88,12.728
		c3.108,0,4.588-0.147,6.66-0.592l0.147,17.02c-2.812,1.036-8.287,1.924-14.503,1.924c-7.252,0-13.32-2.516-17.02-6.216
		c-4.144-4.292-6.216-11.248-6.216-21.459v-29.747h-9.62v-16.575h9.62v-13.615L407.161,515.976z"/>
	<path fill="#1A237E" d="M436.169,588.493c4.144,2.516,12.728,5.327,19.387,5.327c6.809,0,9.62-2.22,9.62-5.919
		c0-3.849-2.22-5.624-10.508-8.437c-15.096-4.884-20.867-13.171-20.719-21.606c0-13.615,11.543-23.828,29.45-23.828
		c8.437,0,15.836,2.072,20.275,4.293l-3.848,15.391c-3.256-1.627-9.619-3.996-15.688-3.996c-5.476,0-8.584,2.221-8.584,5.772
		s2.813,5.327,11.692,8.436c13.764,4.588,19.387,11.691,19.535,22.199c0,13.615-10.508,23.531-31.228,23.531
		c-9.472,0-17.907-2.22-23.383-5.18L436.169,588.493z"/>
</g>
<g>
	<path fill="#A9ABAE" d="M195.035,164.385c2.197,11.995,13.712,19.938,25.718,17.744c12.006-2.195,19.959-13.697,17.762-25.692
		c-2.197-11.995-13.711-19.939-25.718-17.745C200.791,140.887,192.838,152.39,195.035,164.385z"/>
	<path fill="#D1D0D1" d="M130.06,376.978c105.725-43.083,211.444-86.164,317.166-129.248
		c-16.483-48.462-116.041-115.602-224.154-76.469C113.213,216.444,114.825,314.067,130.06,376.978z"/>
	<path fill="#A9ABAE" d="M276.596,280.539c-88.504,35.731-153.081,78.601-146.537,96.438c6.54,17.836,81.718,3.881,170.222-31.855
		c88.499-35.734,153.485-79.558,146.944-97.393C440.682,229.897,365.098,244.808,276.596,280.539z"/>
	<path fill="#727175" d="M280.407,288.262c-78.713,32.244-137.582,70.383-131.479,85.186c6.101,14.811,80.599-5.951,155.109-35.551
		c71.056-30.339,136.046-66.404,129.944-81.208C427.881,241.883,359.124,256.021,280.407,288.262z"/>
</g>
<g>
	<path fill-rule="evenodd" clip-rule="evenodd" fill="#EC6B00" d="M488.603,443.533c0,35.481-81.762,64.237-182.608,64.228
		c-100.85-0.01-182.598-28.782-182.598-64.263c0-21.972,2.354-12.164,24.458-5.37c33.222,10.212,97.592,27.147,158.15,27.153
		c63.028,0.007,122.849-25.658,155.662-34.903C481.355,424.831,488.603,418.253,488.603,443.533z"/>
	
		<ellipse transform="matrix(1 9.893828e-005 -9.893828e-005 1 0.0433 -0.0303)" fill-rule="evenodd" clip-rule="evenodd" fill="#FDBF07" cx="306" cy="437.599" rx="182.603" ry="64.244"/>
	<path fill-rule="evenodd" clip-rule="evenodd" fill="#E1F0FB" d="M470.419,437.614c-0.004,31.947-73.618,57.84-164.423,57.831
		c-90.809-0.01-164.418-25.917-164.415-57.863c0.003-31.948,73.618-57.839,164.426-57.829
		C396.811,379.761,470.422,405.666,470.419,437.614z"/>
	<g>
		<g>
			<path fill-rule="evenodd" clip-rule="evenodd" fill="#1B247E" d="M290.524,388.484c0.035-3.284,6.234-5.439,15.622-5.426
				c9.155,0.007,15.329,2.203,15.339,5.452c0.008,3.247-6.407,5.479-15.65,5.438C296.612,393.909,290.489,391.726,290.524,388.484z"
				/>
			<path fill-rule="evenodd" clip-rule="evenodd" fill="#1B247E" d="M424.596,437.592c0.035-3.285,6.235-5.438,15.623-5.424
				c9.156,0.008,15.33,2.201,15.338,5.452c0.008,3.247-6.405,5.478-15.65,5.438C430.684,443.019,424.563,440.834,424.596,437.592z"
				/>
			<path fill-rule="evenodd" clip-rule="evenodd" fill="#1B247E" d="M290.515,487.354c0.034-3.285,6.234-5.44,15.622-5.427
				c9.156,0.01,15.33,2.204,15.338,5.452c0.009,3.247-6.406,5.481-15.648,5.44C296.604,492.778,290.479,490.596,290.515,487.354z"/>
			<path fill-rule="evenodd" clip-rule="evenodd" fill="#1B247E" d="M153.401,437.564c0.035-3.285,6.234-5.438,15.622-5.424
				c9.155,0.009,15.331,2.201,15.337,5.452c0.007,3.247-6.406,5.479-15.648,5.438C159.488,442.991,153.367,440.807,153.401,437.564z
				"/>
			<path fill-rule="evenodd" clip-rule="evenodd" fill="#1B247E" d="M409.114,459.817c0.034-3.284,6.233-5.438,15.62-5.427
				c9.156,0.009,15.332,2.204,15.339,5.453c0.01,3.247-6.406,5.478-15.649,5.437C415.2,465.244,409.078,463.059,409.114,459.817z"/>
			<path fill-rule="evenodd" clip-rule="evenodd" fill="#1B247E" d="M356.858,478.79c0.033-3.284,6.233-5.442,15.621-5.429
				c9.156,0.011,15.329,2.206,15.339,5.455c0.007,3.249-6.407,5.478-15.648,5.437C362.946,484.217,356.821,482.033,356.858,478.79z"
				/>
			<path fill-rule="evenodd" clip-rule="evenodd" fill="#1B247E" d="M171.912,459.793c0.035-3.284,6.233-5.438,15.622-5.426
				c9.155,0.01,15.33,2.203,15.338,5.452c0.007,3.247-6.406,5.479-15.65,5.438C178,465.221,171.877,463.034,171.912,459.793z"/>
			<path fill-rule="evenodd" clip-rule="evenodd" fill="#1B247E" d="M222.132,478.776c0.035-3.284,6.234-5.441,15.623-5.429
				c9.154,0.011,15.331,2.206,15.337,5.455c0.007,3.249-6.406,5.478-15.649,5.437C228.219,484.204,222.097,482.02,222.132,478.776z"
				/>
			<path fill-rule="evenodd" clip-rule="evenodd" fill="#1B247E" d="M168.882,415.247c0.035-3.282,6.234-5.438,15.622-5.427
				c9.156,0.012,15.331,2.206,15.337,5.455c0.008,3.249-6.405,5.478-15.648,5.438C174.97,420.674,168.848,418.49,168.882,415.247z"
				/>
			<path fill-rule="evenodd" clip-rule="evenodd" fill="#1B247E" d="M222.14,397.378c0.035-3.285,6.234-5.438,15.623-5.43
				c9.154,0.01,15.33,2.207,15.337,5.456c0.007,3.247-6.406,5.478-15.649,5.437C228.228,402.803,222.105,400.618,222.14,397.378z"/>
			<path fill-rule="evenodd" clip-rule="evenodd" fill="#1B247E" d="M356.866,397.392c0.034-3.285,6.233-5.438,15.62-5.43
				c9.156,0.01,15.331,2.207,15.34,5.456c0.008,3.247-6.407,5.478-15.649,5.437C362.953,402.815,356.83,400.632,356.866,397.392z"/>
			<path fill-rule="evenodd" clip-rule="evenodd" fill="#1B247E" d="M409.119,415.271c0.033-3.282,6.233-5.438,15.621-5.428
				c9.156,0.012,15.33,2.207,15.337,5.456c0.01,3.249-6.405,5.478-15.647,5.438C415.206,420.697,409.082,418.514,409.119,415.271z"
				/>
		</g>
		<path fill-rule="evenodd" clip-rule="evenodd" fill="#1A237E" d="M317.079,438.938c-0.005,10.754-0.006,21.51,0,32.263
			c0,0.405,0.08,0.808,0.119,1.211c0.239,2.479-4.254,4.071-11.293,3.994c-7.018-0.076-11.567-1.622-11.718-4.089
			c-0.142-2.381-0.054-4.762-0.053-7.142c-0.006-8.077-0.016-16.153,0.034-24.23c0.005-0.512-0.432-1.206-1.35-1.596
			c-1.417-0.596-2.775-1.008-5.509-1.971c-7.941-2.795-39.714-14.198-47.2-16.832c-6.876-2.42-6.277-5.62-0.989-7.037
			c4.155-1.085,11.267-1.26,14.354-0.173c11.168,3.929,49.063,17.548,58.981,21.036c2.593,0.913,4.331,1.788,4.588,3.038"/>
	</g>
</g>
</svg>
